HIERARCHY
ROOT pelvis
{
  OFFSET 0 100 0
  CHANNELS 6 Xposition Yposition Zposition Zrotation Xrotation Yrotation
  JOINT pelvis_right_femur
  {
    OFFSET -10.78128 -3.44521 -0.5502486
    CHANNELS 3 Zrotation Xrotation Yrotation
    JOINT right_femur_tibia
    {
      OFFSET -0.8047443 -44.0398 -0.1307829
      CHANNELS 3 Zrotation Xrotation Yrotation
      JOINT right_tibia_foot
      {
        OFFSET 3.006224 -47.83518 -5
        CHANNELS 3 Zrotation Xrotation Yrotation
        End Site
        {
          OFFSET 0 -5 15
        }
      }
    }
  }
  JOINT pelvis_left_femur
  {
    OFFSET 10.78128 -3.44521 -0.5502486
    CHANNELS 3 Zrotation Xrotation Yrotation
    JOINT left_femur_tibia
    {
      OFFSET 0.8047443 -44.0398 -0.1307829
      CHANNELS 3 Zrotation Xrotation Yrotation
      JOINT left_tibia_foot
      {
        OFFSET -4.370144 -48.10324 -4.275266
        CHANNELS 3 Zrotation Xrotation Yrotation
        End Site
        {
          OFFSET 0 -5 15
        }
      }
    }
  }
  JOINT pelvis_spine1
  {
    OFFSET 0 6.468898 -3.129235
    CHANNELS 3 Zrotation Xrotation Yrotation
    JOINT spine1
    {
      OFFSET 0 23.15396 4.99043
      CHANNELS 3 Zrotation Xrotation Yrotation
      JOINT spine2
      {
        OFFSET 0 20.79997 -5.064912
        CHANNELS 3 Zrotation Xrotation Yrotation
        JOINT neck
        {
          OFFSET 0 14.38658 9.616178
          CHANNELS 3 Zrotation Xrotation Yrotation
          End Site
          {
            OFFSET 0 20 0
          }
        }
      }
      JOINT right_manubrium
      {
        OFFSET -5.722621 16.35077 3.967754
        CHANNELS 3 Zrotation Xrotation Yrotation
        JOINT right_clavicle
        {
          OFFSET -13.16364 1.694482 -4.693211
          CHANNELS 3 Zrotation Xrotation Yrotation
          JOINT right_humerus
          {
            OFFSET -28.5034 -0.3100689 -2.792744
            CHANNELS 3 Zrotation Xrotation Yrotation
            JOINT right_radius
            {
              OFFSET -25.15693 0.02248979 -1.271978
              CHANNELS 3 Zrotation Xrotation Yrotation
              End Site
              {
                OFFSET -15 0 0
              }
            }
          }
        }
      }
      JOINT left_manubrium
      {
        OFFSET 5.722621 16.35077 3.967754
        CHANNELS 3 Zrotation Xrotation Yrotation
        JOINT left_clavicle
        {
          OFFSET 13.16364 1.694482 -4.693211
          CHANNELS 3 Zrotation Xrotation Yrotation
          JOINT left_humerus
          {
            OFFSET 29.39168 -1.063119 -2.237045
            CHANNELS 3 Zrotation Xrotation Yrotation
            JOINT left_radius
            {
              OFFSET 24.59957 -0.9528479 0.9047498
              CHANNELS 3 Zrotation Xrotation Yrotation
              End Site
              {
                OFFSET 15 -0 -0
              }
            }
          }
        }
      }
    }
  }
}
MOTION
Frames: 11
Frame Time: 0.0416666666667
32.83588 101.4162 252.5875 -0.1298472 -1.143947 0.02063954 3.140298 11.23316 6.184129 -0 22.45559 -0 1.041337 -13.84322 -2.117255 2.560209 -32.13384 -1.473012 -0 24.67037 -0 -8.183578 -8.830403 19.84399 2.820502 -6.965159 9.750489 -3.884291 9.881404 -1.460603 1.766333 20.44977 5.399975 3.054164 -19.08659 5.646737 4.307411 -23.1401 12.93497 76.79896 17.88179 -2.159262 -0 0 26.17417 -22.05124 8.51696 12.94563 1.629183 -15.44305 -4.150102 -91.83322 21.22047 27.28361 0 0 -11.87863 -3.386756 7.589687 14.44812
34.21581 100.8434 259.8575 -0.1340541 -1.16449 -0.1635593 2.447019 11.905 6.479521 -0 28.66139 -0 2.139992 -11.44183 -1.949668 1.4146 -31.59606 -2.592757 -0 25.18867 -0 -7.995768 -8.640811 19.27141 2.641911 -8.083135 9.652128 -3.825711 9.683069 -1.528494 2.016917 20.42882 5.248672 3.002111 -18.91452 5.765453 4.292136 -22.38346 12.58372 77.77428 17.6155 -2.957138 -0 0 25.81347 -22.31908 8.374805 13.05675 1.476884 -14.3422 -3.931781 -92.16845 21.1018 27.52955 0 0 -10.79832 -3.921019 7.494835 15.15508
35.41309 100.9983 266.8434 -0.1264289 -1.123934 0.1457263 1.870834 11.45254 6.299712 -0 36.39227 -0 2.815812 -8.572612 -2.188632 -0.02562819 -28.72568 -3.659726 -0 27.27533 -0 -7.661758 -9.024045 18.71092 2.278429 -9.035686 9.360855 -3.664187 9.46937 -1.585492 2.157583 20.52558 5.185793 2.902029 -18.72204 5.915678 4.609353 -21.31902 12.33291 79.11229 17.5442 -4.46713 -0 0 24.38751 -22.36186 8.328658 12.91707 1.503768 -13.92307 -3.851353 -91.7831 21.173 26.80236 0 0 -10.35787 -4.251977 7.470399 15.58859
36.79649 101.982 273.9511 -0.1051436 -1.006729 1.083417 1.610868 6.307274 6.027358 -0 44.52685 -0 2.542511 -7.926975 -3.35652 -1.250771 -25.47438 -4.769815 -0 28.70371 -0 -6.991794 -10.51075 17.90682 2.28373 -10.26142 8.791122 -3.633474 9.500873 -1.63746 2.139109 20.86026 5.192271 2.697272 -18.56152 6.072099 5.084741 -19.90649 11.97242 80.64601 17.61857 -6.67179 -0 0 22.10838 -22.1875 8.374928 12.59071 1.408019 -13.89607 -3.597746 -90.85097 21.33071 25.46183 0 0 -10.27223 -4.302663 7.552507 15.73413
37.96937 102.8561 279.7957 -0.09162988 -0.9233865 1.742225 1.547119 2.376973 5.357908 -0 52.50824 -0 2.471848 -6.482293 -5.246426 -2.090122 -21.8034 -5.653111 -0 28.6693 -0 -6.370464 -12.23949 17.07715 2.122862 -10.27921 7.949682 -3.600376 9.402915 -1.832478 2.052271 21.09767 5.280416 2.422035 -18.32121 6.301708 5.602461 -18.97206 12.02227 82.12395 17.83216 -8.583846 -0 0 19.79456 -21.85203 8.473756 12.27375 1.341536 -14.50472 -3.76444 -89.33292 21.61213 23.09309 0 0 -10.68885 -4.134194 7.735996 15.61416
39.02483 104.1641 285.3407 -0.0765903 -0.8221315 2.548531 1.763307 -5.424274 4.863467 -0 56.58366 -0 1.506169 -7.737843 -7.097218 -2.612419 -17.4316 -6.125766 -0 27.16584 -0 -6.021612 -13.68378 16.13038 1.857839 -10.021 6.616503 -3.39241 9.356536 -2.579562 1.968144 21.45808 5.441457 2.13283 -17.96796 6.651281 6.024157 -18.24678 11.85857 83.66342 18.06397 -10.52194 -0 0 17.56247 -21.4706 8.573618 12.0417 1.279907 -15.20774 -4.157626 -87.63303 21.90577 20.25024 0 0 -11.23502 -3.874538 8.000409 15.35944
40.09519 105.3859 290.7814 -0.04304199 -0.5642128 4.622051 2.20866 -12.61348 4.703091 -0 56.97193 -0 0.7322614 -8.176521 -8.848403 -3.128164 -12.38099 -6.350298 -0 24.41903 -0 -5.880567 -14.95051 14.921 1.417697 -10.10223 4.897429 -3.045475 9.145204 -4.001432 1.908102 21.63007 5.693935 1.856994 -17.77001 7.142109 5.926168 -17.25332 11.28023 85.16569 18.14808 -12.82309 -0 0 15.48041 -21.13641 8.588519 11.89837 1.442368 -15.85591 -4.765553 -85.90779 22.16195 17.07552 0 0 -12.06246 -3.576012 8.365555 14.9569
40.98944 106.1193 295.7316 -0.01793193 -0.3022882 6.727462 2.326322 -18.72292 4.390764 -0 53.42396 -0 0.1467185 -7.660701 -10.43459 -3.320764 -8.040794 -6.646474 -0 21.57167 -0 -5.876606 -16.13481 13.64044 0.8001008 -9.855344 3.426913 -2.438471 8.984982 -5.516438 2.085435 21.99188 5.794455 1.72797 -17.3169 7.616264 5.427533 -16.44635 10.60497 86.28849 18.10215 -14.9863 -0 0 13.74606 -20.94118 8.487986 11.92753 1.87095 -16.96771 -5.482463 -83.96145 22.4008 13.36908 0 0 -13.35119 -3.230405 8.841535 14.33886
41.7821 106.2153 300.764 -0.001103881 -0.0266476 8.946634 1.714859 -23.68168 4.213195 -0 46.42731 -0 -0.2748011 -6.479973 -11.9062 -3.188023 -4.030276 -6.885288 -0 19.24002 -0 -5.906603 -17.49207 12.33121 0.191387 -9.565508 2.309221 -1.627367 8.746302 -7.029098 2.38546 22.06449 5.724133 1.650567 -16.96319 7.961491 4.741198 -15.52409 9.756022 87.16899 17.95791 -17.21531 -0 0 11.98794 -20.8187 8.307964 11.98959 2.459079 -18.01241 -5.981873 -82.18979 22.50688 9.694277 0 0 -14.93821 -2.859525 9.401821 13.55394
42.53036 105.7545 306.0565 0.005383027 0.1998605 10.77498 0.6195724 -28.1502 3.737127 -0 37.23006 -0 -0.632866 -4.939897 -13.6094 -2.901218 -0.1793557 -6.991401 -0 17.66974 -0 -5.976448 -19.0876 11.19073 -0.3389093 -9.243666 1.503919 -0.8462278 8.442329 -8.267592 2.699118 21.96798 5.591275 1.58384 -16.68891 8.222487 4.085883 -14.58218 8.958182 87.9235 17.80247 -19.30532 -0 0 10.07244 -20.72026 8.121991 12.01566 3.061428 -19.01659 -6.267983 -80.59148 22.48376 6.265278 0 0 -16.55558 -2.447465 10.00768 12.66031
43.37349 104.6602 311.3311 0.006331229 0.3271248 11.80667 -0.2570276 -29.79058 3.025793 -0 27.06447 -0 -1.342939 -4.41627 -14.65784 -2.605165 3.290499 -7.060826 -0 17.06528 -0 -6.174403 -20.75592 10.27596 -0.5537207 -8.726097 0.9866872 -0.1859137 8.088231 -8.982835 2.954882 21.73371 5.457094 1.490865 -16.5253 8.421985 3.473434 -13.8857 8.540604 88.48659 17.72118 -20.89987 -0 0 7.976521 -20.57147 7.967727 11.95533 3.725577 -20.09383 -6.400519 -79.13898 22.33501 3.15558 0 0 -18.11071 -1.9578 10.63579 11.68527
